REM DIRINDEX 1\2,1\3,1\4,1\5
REM DIRNAME folder01,folder02,folder03,folder04,folder05
TITLE ""
FILE "P1Q_t_0610-0619.mp3" MP3
  TRACK 01 AUDIO
    TITLE "3:cjc005_2733"
    INDEX 01 00:00:00
  TRACK 02 AUDIO
    TITLE "0:"
    INDEX 01 00:00:70
  TRACK 03 AUDIO
    TITLE "4:cjc005_2734"
    INDEX 01 00:01:22
  TRACK 04 AUDIO
    TITLE "0:"
    INDEX 01 00:02:10
  TRACK 05 AUDIO
    TITLE "5:cjc005_2735"
    INDEX 01 00:02:36
  TRACK 06 AUDIO
    TITLE "0:"
    INDEX 01 00:05:71
  TRACK 07 AUDIO
    TITLE "3:cjc005_2736"
    INDEX 01 00:06:47
  TRACK 08 AUDIO
    TITLE "0:"
    INDEX 01 00:08:07
  TRACK 09 AUDIO
    TITLE "4:cjc005_2737"
    INDEX 01 00:08:30
  TRACK 10 AUDIO
    TITLE "0:"
    INDEX 01 00:09:59
  TRACK 11 AUDIO
    TITLE "5:cjc005_2738"
    INDEX 01 00:10:04
  TRACK 12 AUDIO
    TITLE "0:"
    INDEX 01 00:14:70
  TRACK 13 AUDIO
    TITLE "3:cjc005_2739"
    INDEX 01 00:15:48
  TRACK 14 AUDIO
    TITLE "0:"
    INDEX 01 00:16:59
  TRACK 15 AUDIO
    TITLE "4:cjc005_2740"
    INDEX 01 00:17:10
  TRACK 16 AUDIO
    TITLE "0:"
    INDEX 01 00:18:25
  TRACK 17 AUDIO
    TITLE "5:cjc005_2741"
    INDEX 01 00:18:52
  TRACK 18 AUDIO
    TITLE "0:"
    INDEX 01 00:22:23
  TRACK 19 AUDIO
    TITLE "3:cjc005_2742"
    INDEX 01 00:23:01
  TRACK 20 AUDIO
    TITLE "0:"
    INDEX 01 00:24:16
  TRACK 21 AUDIO
    TITLE "4:cjc005_2743"
    INDEX 01 00:24:43
  TRACK 22 AUDIO
    TITLE "0:"
    INDEX 01 00:25:52
  TRACK 23 AUDIO
    TITLE "5:cjc005_2744"
    INDEX 01 00:26:07
  TRACK 24 AUDIO
    TITLE "0:"
    INDEX 01 00:30:34
  TRACK 25 AUDIO
    TITLE "3:cjc005_2745"
    INDEX 01 00:31:08
  TRACK 26 AUDIO
    TITLE "0:"
    INDEX 01 00:32:17
  TRACK 27 AUDIO
    TITLE "4:cjc005_2746"
    INDEX 01 00:32:43
  TRACK 28 AUDIO
    TITLE "0:"
    INDEX 01 00:33:68
  TRACK 29 AUDIO
    TITLE "5:cjc005_2747"
    INDEX 01 00:34:20
  TRACK 30 AUDIO
    TITLE "0:"
    INDEX 01 00:37:46
  TRACK 31 AUDIO
    TITLE "3:cjc005_2748"
    INDEX 01 00:38:22
  TRACK 32 AUDIO
    TITLE "0:"
    INDEX 01 00:39:25
  TRACK 33 AUDIO
    TITLE "4:cjc005_2749"
    INDEX 01 00:39:66
  TRACK 34 AUDIO
    TITLE "0:"
    INDEX 01 00:41:16
  TRACK 35 AUDIO
    TITLE "5:cjc005_2750"
    INDEX 01 00:41:36
  TRACK 36 AUDIO
    TITLE "0:"
    INDEX 01 00:45:55
  TRACK 37 AUDIO
    TITLE "3:cjc005_2751"
    INDEX 01 00:46:31
  TRACK 38 AUDIO
    TITLE "0:"
    INDEX 01 00:47:62
  TRACK 39 AUDIO
    TITLE "4:cjc005_2752"
    INDEX 01 00:48:08
  TRACK 40 AUDIO
    TITLE "0:"
    INDEX 01 00:49:37
  TRACK 41 AUDIO
    TITLE "5:cjc005_2753"
    INDEX 01 00:49:65
  TRACK 42 AUDIO
    TITLE "0:"
    INDEX 01 00:54:19
  TRACK 43 AUDIO
    TITLE "3:cjc005_2754"
    INDEX 01 00:54:74
  TRACK 44 AUDIO
    TITLE "0:"
    INDEX 01 00:56:16
  TRACK 45 AUDIO
    TITLE "4:cjc005_2755"
    INDEX 01 00:56:43
  TRACK 46 AUDIO
    TITLE "0:"
    INDEX 01 00:58:05
  TRACK 47 AUDIO
    TITLE "5:cjc005_2756"
    INDEX 01 00:58:32
  TRACK 48 AUDIO
    TITLE "0:"
    INDEX 01 01:01:52
  TRACK 49 AUDIO
    TITLE "3:cjc005_2757"
    INDEX 01 01:02:26
  TRACK 50 AUDIO
    TITLE "0:"
    INDEX 01 01:03:47
  TRACK 51 AUDIO
    TITLE "4:cjc005_2758"
    INDEX 01 01:03:71
  TRACK 52 AUDIO
    TITLE "0:"
    INDEX 01 01:04:74
  TRACK 53 AUDIO
    TITLE "5:cjc005_2759"
    INDEX 01 01:05:24
  TRACK 54 AUDIO
    TITLE "0:"
    INDEX 01 01:08:05
  TRACK 55 AUDIO
    TITLE "3:cjc005_2760"
    INDEX 01 01:08:62
  TRACK 56 AUDIO
    TITLE "0:"
    INDEX 01 01:10:16
  TRACK 57 AUDIO
    TITLE "4:cjc005_2761"
    INDEX 01 01:10:41
  TRACK 58 AUDIO
    TITLE "0:"
    INDEX 01 01:11:68
  TRACK 59 AUDIO
    TITLE "5:cjc005_2762"
    INDEX 01 01:12:13
  TRACK 60 AUDIO
    TITLE "0:"
    INDEX 01 01:15:13
